<svg width="2755" height="1380" xmlns="http://www.w3.org/2000/svg" xmlns:xlink="http://www.w3.org/1999/xlink" xml:space="preserve" overflow="hidden"><g transform="translate(-1512 -545)"><g><g><g><g><path d="M2750.5 1239.22C2750.5 1543.09 2504.03 1789.22 2200.5 1789.22 1896.97 1789.22 1650.5 1542.75 1650.5 1239.22 1650.5 935.688 1896.97 689.219 2200.5 689.219 2504.03 689.219 2750.5 935.344 2750.5 1239.22" fill="#FFFFFF" fill-rule="nonzero" fill-opacity="1"/><path d="M1803.12 1202.78 1697.59 1219.28C1707.91 950.125 1929.28 735.625 2200.84 735.625L2200.84 738.375 2200.84 901.656 2200.84 950.469 2200.84 977.281 2200.84 1004.78 2203.25 1005.47 2210.81 976.938 2342.47 976.938 2343.5 980.375C2342.12 990 2342.81 1018.88 2391.28 1039.5L2392.66 1043.28 2200.84 1038.47 2009.03 1043.28 2010.41 1039.5C2058.53 1018.88 2059.22 990 2058.19 980.375L2059.22 976.938 2190.87 976.938 2184 950.812 2088.09 953.906 2088.78 951.5C2117.31 935.344 2118.34 912.656 2117.66 904.406L2118.69 901.312 2170.94 901.312 2155.81 842.531C1968.47 863.5 1820.31 1014.06 1803.12 1202.78M2540.81 1029.88 2525.34 1076.62 2528.78 1083.5 2668 1083.5 2673.84 1065.97C2605.78 879.312 2429.78 744.219 2221.12 735.969L2237.62 841.844C2366.19 853.531 2476.87 925.719 2540.81 1029.88M2528.78 1394.94 2525.34 1401.81 2540.81 1448.56C2476.53 1552.72 2366.19 1624.91 2237.97 1636.94L2221.47 1742.81C2429.78 1734.22 2605.44 1599.47 2673.84 1412.47L2668 1394.94 2528.78 1394.94ZM2401.59 1070.09 2400.22 1065.97 2200.84 1065.97 2001.47 1065.97 2000.09 1070.09C1999.75 1082.12 1994.25 1119.94 1942 1171.84L1940.62 1176.31C1969.84 1163.59 1995.97 1153.28 2020.72 1144 2050.97 1132.66 2079.16 1123.72 2107 1116.16 2122.12 1112.03 2137.25 1108.59 2151.69 1105.5 2167.16 1102.41 2182.62 1099.66 2197.41 1097.59L2200.5 1097.25 2203.59 1097.59C2216.31 1099.31 2229.37 1101.38 2242.78 1104.12 2255.16 1106.53 2268.22 1109.62 2281.28 1113.06 2305 1119.25 2329.41 1126.81 2356.22 1136.09 2391.97 1148.81 2427.38 1163.25 2461.41 1178.03L2459.34 1171.84C2407.44 1119.94 2401.59 1082.12 2401.59 1070.09M2312.56 951.844C2284.03 935.688 2283 913 2283.69 904.75L2282.66 901.656 2230.41 901.656 2217.69 951.156 2313.59 954.25 2312.56 951.844ZM2289.88 1475.03C2290.22 1475.72 2290.56 1476.06 2291.25 1476.75 2292.28 1478.12 2294 1479.5 2295.72 1480.53 2297.44 1481.56 2299.84 1482.94 2302.59 1484.31 2307.41 1486.38 2313.25 1488.44 2320.81 1490.16 2334.56 1493.59 2350.03 1495.31 2363.78 1496.69 2367.56 1497.03 2371.34 1497.38 2375.12 1497.72 2381.31 1479.84 2388.88 1462.31 2397.81 1444.44 2381.66 1451.66 2364.47 1457.84 2346.25 1463 2323.22 1469.88 2303.28 1473.31 2289.88 1475.03M2080.87 1490.16C2088.44 1488.44 2094.28 1486.38 2099.09 1484.31 2101.84 1483.28 2103.91 1481.91 2105.97 1480.53 2107.69 1479.16 2109.41 1477.78 2110.44 1476.75 2110.78 1476.06 2111.47 1475.72 2111.81 1475.03 2098.41 1473.31 2078.47 1469.88 2055.44 1463.34 2037.22 1458.19 2020.03 1452 2003.87 1444.78 2012.47 1462.31 2020.37 1480.19 2026.56 1498.06 2030.34 1497.72 2034.12 1497.38 2037.91 1497.03 2051.31 1495.31 2067.12 1493.59 2080.87 1490.16M2704.09 1239.22 2704.09 1239.56 2704.09 1259.16 2598.56 1275.66 2488.22 1293.19C2464.5 1331.69 2439.06 1369.84 2417.41 1408.34 2414.66 1410.06 2412.25 1411.44 2409.5 1413.16 2374.44 1433.09 2335.25 1445.12 2292.28 1448.91 2296.06 1439.62 2301.91 1430.69 2307.75 1421.75 2310.84 1416.94 2314.62 1411.78 2319.09 1405.94 2322.88 1400.78 2326.66 1395.62 2331.12 1390.12 2342.12 1376.03 2353.81 1361.25 2365.16 1347.5 2370.66 1340.62 2376.5 1333.41 2382 1326.53L2394.72 1310.38C2395.41 1309.69 2395.75 1309 2396.44 1308.31 2400.22 1303.5 2403.66 1298.69 2407.09 1293.88 2410.88 1288.72 2415 1282.88 2418.78 1277.03 2419.81 1275.31 2421.19 1273.25 2422.22 1271.53 2422.91 1270.5 2423.59 1269.47 2424.28 1268.44 2424.28 1268.44 2424.28 1268.44 2424.28 1268.44L2402.97 1262.25C2402.97 1262.25 2402.97 1262.59 2402.62 1262.59 2401.59 1264.31 2400.56 1266.03 2399.19 1267.75 2396.09 1272.56 2392.31 1277.72 2387.84 1283.91 2381.66 1292.16 2373.06 1302.81 2364.12 1313.47 2363.78 1314.16 2363.09 1314.5 2362.75 1315.19 2351.41 1328.25 2339.37 1341.31 2327.34 1353.69 2320.47 1360.91 2313.59 1368.47 2306.72 1375.69 2298.12 1384.97 2288.5 1395.97 2279.56 1407.66 2275.09 1413.16 2270.97 1419.34 2267.19 1425.19 2264.09 1430.34 2259.97 1437.22 2257.22 1444.78 2255.16 1450.28 2252.41 1458.53 2252.75 1468.5 2252.75 1477.78 2256.87 1487.75 2263.41 1494.62 2266.84 1498.75 2271.31 1501.84 2274.75 1504.25 2279.22 1507 2283.34 1509.06 2287.47 1510.78 2295.03 1513.88 2303.28 1516.28 2313.25 1518 2321.84 1519.72 2330.44 1520.41 2338.34 1521.09 2346.94 1521.78 2355.53 1521.78 2362.75 1522.12 2363.09 1522.12 2363.44 1522.12 2363.78 1522.12 2365.5 1522.12 2366.87 1522.12 2368.59 1522.12 2367.22 1526.94 2366.19 1531.75 2365.16 1536.56 2365.16 1536.56 2365.16 1536.56 2365.16 1536.56 2365.16 1536.56 2365.16 1536.56 2364.81 1536.56L2290.91 1563.03 2245.19 1580.22 2213.56 1251.59 2210.81 1221.69 2204.97 1161.53 2201.53 1162.56 2201.53 1221.69 2201.53 1238.88 2201.53 1246.78 2201.53 1607.03 2201.53 1740.75 2201.53 1743.5C1923.44 1743.5 1697.94 1518 1697.94 1240.25L1697.94 1239.91 1808.97 1239.91 1994.59 1239.91 2023.81 1239.91 2024.84 1236.81 1976.72 1223.41 1931.34 1211.03 1933.06 1206.22C2015.91 1169.44 2106.31 1134.03 2201.87 1120.97 2295.38 1133.34 2385.78 1170.81 2471.03 1207.59L2472.06 1211.03 2426.69 1223.41 2378.56 1236.81 2379.59 1239.91 2408.81 1239.91 2594.44 1239.91 2704.09 1239.91ZM2164.06 1636.94 2155.12 1579.19 2111.47 1563.03 2037.91 1536.56C2037.91 1536.56 2037.56 1536.56 2037.56 1536.56 2037.56 1536.56 2037.56 1536.56 2037.56 1536.56 2036.53 1531.75 2035.5 1526.94 2034.12 1522.12 2035.84 1522.12 2037.22 1522.12 2038.94 1522.12 2039.28 1522.12 2039.62 1522.12 2039.97 1522.12 2047.19 1522.12 2055.78 1522.12 2064.37 1521.09 2072.28 1520.41 2080.87 1519.72 2089.47 1518 2099.44 1516.28 2107.34 1513.88 2115.25 1510.78 2119.37 1509.06 2123.5 1507 2127.97 1504.25 2131.75 1501.84 2135.87 1498.75 2139.31 1494.62 2145.84 1487.41 2149.62 1477.78 2149.97 1468.5 2149.97 1463.69 2149.97 1456.47 2145.5 1444.78 2142.41 1437.22 2138.62 1430.34 2135.53 1425.19 2131.75 1419.34 2127.62 1413.16 2123.16 1407.66 2114.22 1395.97 2104.25 1384.97 2096 1375.69 2089.12 1368.12 2082.25 1360.91 2075.38 1353.69 2063.69 1340.97 2051.31 1328.25 2039.97 1315.19 2039.62 1314.5 2038.94 1314.16 2038.59 1313.47 2029.31 1302.81 2021.06 1292.16 2014.53 1283.91 2010.06 1277.72 2006.28 1272.56 2003.19 1267.75 2002.16 1266.03 2001.12 1264.31 2000.09 1262.59 2000.09 1262.59 2000.09 1262.25 1999.75 1262.25L1978.44 1268.44C1978.44 1268.44 1978.44 1268.44 1978.44 1268.44 1979.12 1269.47 1979.81 1270.5 1980.5 1271.53 1981.53 1273.25 1982.91 1275.31 1983.94 1277.03 1987.72 1282.88 1991.84 1288.72 1995.62 1293.88 1999.06 1298.69 2002.84 1303.5 2006.28 1308.31 2006.62 1309 2007.31 1309.69 2007.66 1310.38L2020.37 1326.53C2025.87 1333.41 2031.72 1340.62 2037.22 1347.5 2048.56 1361.59 2060.25 1376.03 2071.25 1390.12 2075.72 1395.62 2079.5 1401.12 2083.28 1405.94 2087.75 1412.12 2091.19 1416.94 2094.62 1421.75 2100.47 1430.34 2105.97 1439.62 2110.09 1448.91 2067.47 1445.12 2027.94 1433.09 1993.22 1413.16 1990.47 1411.78 1987.72 1410.06 1985.31 1408.34 1963.31 1369.84 1938.22 1331.69 1914.5 1293.19L1803.81 1275.66C1820.66 1467.12 1972.94 1619.41 2164.06 1636.94" fill="#12173F" fill-rule="nonzero" fill-opacity="1"/></g></g></g><g><g><g><path d="M3207.69 1013.38C3207.69 1013.38 3321.47 827.406 3554.19 827.406 3786.91 827.406 3895.53 1007.88 3895.53 1007.88L4211.44 1007.88 4199.06 1085.56C4199.06 1085.56 4189.78 1116.5 4175.69 1119.59L4197.34 1119.59C4197.34 1119.59 4204.56 1146.75 4161.25 1240.59L4253.38 1240.59C4253.38 1240.59 4257.16 1404.91 4058.47 1482.59 4058.47 1482.59 3955.69 1515.25 3903.09 1459.22 3903.09 1459.22 3798.59 1654.12 3554.87 1654.12 3311.16 1654.12 3200.47 1453.72 3200.47 1453.72L2916.87 1453.72 2961.91 1372.59 2931.31 1372.59 2967.41 1305.91 3028.94 1305.91 3039.94 1280.47 3011.06 1280.47 3081.53 1150.53 3121.06 1150.53 3137.22 1111 3102.84 1111 3155.44 1013.38 3207.69 1013.38Z" fill="#FFFFFF" fill-rule="nonzero" fill-opacity="1"/><path d="M3557.62 1610.81C3757 1610.81 3918.56 1446.84 3918.56 1244.38 3918.56 1041.91 3757 877.938 3557.62 877.938 3358.25 877.938 3196.69 1041.91 3196.69 1244.38 3196.69 1446.84 3358.25 1610.81 3557.62 1610.81" fill="#FAB624" fill-rule="nonzero" fill-opacity="1"/><path d="M3841.22 1007.53C3836.75 1002.38 3830.22 991.375 3785.87 952.531 3720.56 895.812 3634.28 869.688 3552.81 869.688 3493 869.688 3440.41 883.094 3382.66 915.062 3308.41 955.625 3278.16 1002.72 3270.59 1012.34 3265.09 1019.56 3264.06 1023.34 3267.84 1025.41 3270.59 1026.78 3275.41 1021.28 3279.87 1015.09 3301.87 985.875 3330.75 957.344 3361 940.156 3370.62 941.531 3383.69 954.594 3388.84 961.812 3369.25 972.469 3336.94 996.875 3324.91 1006.5 3314.25 1014.75 3310.81 1019.22 3313.56 1022.66 3315.97 1025.41 3324.22 1019.91 3330.75 1014.41 3342.44 1004.78 3377.16 980.375 3394.34 971.094 3406.03 984.5 3402.25 1009.94 3398.12 1015.78 3395.72 1018.88 3395.72 1021.97 3398.12 1023.34 3400.53 1024.72 3403.28 1021.28 3406.72 1016.12 3414.97 1004.78 3411.53 976.594 3404.66 966.625 3425.62 953.906 3455.87 944.969 3474.09 940.844 3475.81 943.938 3497.81 1008.56 3501.94 1019.91 3504.34 1026.44 3506.75 1034 3511.22 1032.28 3514.31 1031.25 3512.25 1024.03 3509.5 1017.16 3506.06 1008.22 3489.56 954.25 3484.41 938.094 3490.59 934.656 3526.69 927.438 3535.97 927.781 3531.5 951.5 3548 961.125 3567.25 973.5 3577.56 980.031 3641.16 1016.81 3654.56 1025.06 3662.12 1029.88 3667.97 1032.97 3669.69 1030.56 3671.41 1027.81 3666.25 1022.66 3659.03 1018.88 3653.19 1015.44 3594.06 981.062 3569.31 965.25 3551.44 954.25 3541.81 941.875 3546.28 926.406 3552.12 924.688 3570 924.688 3588.56 924.688 3715.06 925.719 3816.81 998.594 3828.16 1009.94 3834 1015.78 3841.91 1020.94 3845 1018.53 3847.41 1017.5 3843.97 1010.62 3841.22 1007.53M3399.5 957.344C3396.06 951.5 3379.91 937.062 3371.31 933.969 3391.59 919.188 3438.69 897.531 3456.56 893.75 3459.66 898.906 3467.91 920.906 3470.66 929.844 3455.19 933.281 3413.25 948.75 3399.5 957.344M3538.03 916.781C3521.53 917.812 3491.62 924.344 3480.97 927.438 3478.22 920.219 3470.66 897.875 3468.25 891 3498.84 882.406 3533.91 879.656 3561.41 881.719 3553.5 887.219 3540.78 909.906 3538.03 916.781M3620.19 915.75C3592.69 913.688 3570.34 913 3550.75 915.062 3556.59 900.969 3567.59 887.219 3576.53 881.719 3595.09 882.406 3614.34 885.156 3630.16 888.25 3679.31 898.219 3755.28 927.781 3788.28 971.781 3744.28 942.219 3671.41 919.188 3620.19 915.75" fill="#0B1A23" fill-rule="nonzero" fill-opacity="1"/><path d="M3868.72 1441.34C3873.53 1432.75 3877.31 1427.94 3873.19 1425.53 3869.41 1423.47 3865.97 1431.72 3861.5 1438.94 3846.72 1464.72 3830.56 1486.03 3794.12 1519.03 3753.91 1555.81 3707.16 1577.12 3691 1582.62 3677.25 1544.12 3624.66 1379.12 3623.28 1374.31 3621.22 1367.09 3619.5 1365.03 3617.09 1366.06 3614.34 1367.09 3616.06 1370.88 3617.44 1377.06 3618.81 1383.25 3681.37 1578.16 3683.44 1585.38 3671.06 1591.56 3620.87 1605.66 3585.47 1606.69 3553.84 1607.72 3517.41 1606.69 3498.84 1602.22 3477.19 1584.69 3427.34 1514.56 3408.78 1477.44 3386.44 1433.44 3372 1393.22 3368.22 1376.03 3366.5 1367.78 3364.09 1361.94 3359.97 1362.97 3355.5 1364 3357.91 1370.53 3360.66 1379.12 3367.53 1401.81 3378.19 1433.78 3401.22 1479.5 3425.62 1527.97 3469.28 1584.34 3482 1600.16 3442.12 1591.56 3393.66 1573 3347.59 1538.97 3308.06 1509.41 3273.69 1471.59 3256.5 1444.09 3253.41 1439.28 3249.97 1432.75 3245.84 1435.5 3243.78 1436.88 3246.19 1442.38 3249.28 1447.19 3274.37 1491.88 3334.87 1555.12 3412.91 1590.19 3503.66 1630.75 3602.31 1628.34 3691.34 1594.31 3768.34 1563.72 3835.37 1502.19 3868.72 1441.34" fill="#0B1A23" fill-rule="nonzero" fill-opacity="1"/><path d="M3722.28 1282.19C3688.59 1323.09 3669.34 1337.19 3635.31 1337.19 3623.97 1337.19 3617.78 1334.44 3620.87 1328.94L3661.44 1247.47 3676.91 1247.47C3694.09 1247.47 3691.69 1261.91 3687.22 1281.5 3686.19 1284.25 3688.59 1284.59 3690.66 1282.19L3729.16 1214.47C3731.22 1210 3726.06 1209.31 3723.66 1212.41 3704.41 1238.88 3684.12 1236.81 3675.19 1236.81L3667.97 1236.81 3711.28 1153.97 3728.81 1153.97C3750.81 1155.34 3761.12 1173.91 3754.94 1218.94L3764.22 1218.94 3796.19 1156.03C3798.94 1150.53 3793.09 1145.72 3787.25 1145.72L3571.03 1145.72C3558.66 1145.72 3557.97 1155.34 3570 1155.34 3579.97 1155.34 3579.28 1169.09 3570.34 1175.97L3478.56 1248.84 3497.12 1334.78C3498.5 1341.31 3502.62 1344.41 3509.84 1344.41L3688.94 1344.41C3696.5 1344.41 3699.59 1341.31 3701.66 1338.22L3734.31 1282.53C3738.09 1274.62 3727.78 1275.31 3722.28 1282.19M3597.16 1242.66 3581.34 1242.66C3580.31 1242.66 3579.28 1243.69 3579.28 1244.72 3579.28 1245.75 3580.31 1246.78 3581.34 1246.78L3597.16 1246.78C3602.66 1246.78 3607.81 1247.47 3606.44 1249.88L3565.19 1328.25C3560.03 1337.88 3549.37 1335.47 3547.66 1327.91L3527.03 1222.03 3599.22 1166.34C3606.44 1160.16 3620.19 1150.19 3627.41 1150.53L3642.87 1150.53C3652.5 1150.53 3655.59 1155 3653.87 1160.84L3651.12 1166.34C3649.41 1169.44 3643.56 1169.78 3639.09 1169.78L3629.81 1169.78C3628.78 1169.78 3627.75 1170.81 3627.75 1171.84 3627.75 1172.88 3628.78 1173.91 3629.81 1173.91L3638.75 1173.91C3642.53 1173.91 3647.69 1173.91 3645.62 1177L3612.28 1240.59C3610.22 1242.31 3603.34 1242.66 3597.16 1242.66" fill="#542C81" fill-rule="nonzero" fill-opacity="1"/><path d="M3449 1335.12C3444.19 1335.12 3440.75 1331.69 3439.72 1328.25 3438 1323.44 3438.34 1315.53 3440.06 1312.09L3523.59 1164.28C3524.97 1161.53 3528.41 1155.69 3532.53 1155.69 3540.09 1155.69 3543.19 1145.72 3530.47 1145.72L3463.78 1145.72C3451.41 1145.72 3451.41 1155.34 3463.09 1155.34 3467.91 1155.34 3469.97 1160.16 3468.59 1163.25L3450.03 1196.59C3447.62 1200.38 3442.47 1200.72 3437.31 1200.72L3421.5 1200.72C3420.47 1200.72 3419.44 1201.75 3419.44 1202.78 3419.44 1203.81 3420.47 1204.84 3421.5 1204.84L3437.31 1204.84C3441.78 1204.84 3445.22 1206.22 3442.47 1211.38L3380.94 1323.78C3376.47 1329.97 3367.87 1331.34 3368.22 1319.31L3390.22 1154.66C3391.25 1149.5 3389.87 1146.06 3384.03 1146.06L3350.69 1146.06C3346.56 1146.06 3344.16 1148.12 3342.44 1150.53L3330.75 1165.31C3329.03 1167.03 3325.94 1167.03 3322.16 1167.03L3294.31 1167.03C3293.28 1167.03 3292.25 1168.06 3292.25 1169.09 3292.25 1170.12 3293.28 1171.16 3294.31 1171.16L3317 1171.16C3321.12 1171.16 3325.94 1172.19 3324.22 1173.91L3292.25 1213.78C3291.22 1214.81 3288.12 1215.16 3286.06 1215.16L3276.78 1215.16C3275.75 1215.16 3274.72 1216.19 3274.72 1217.22 3274.72 1218.25 3275.75 1219.28 3276.78 1219.28L3284.34 1219.28C3286.75 1219.28 3286.75 1220.31 3285.72 1221.34L3255.81 1258.81C3254.09 1260.19 3251.34 1260.53 3248.25 1260.53L3221.78 1260.53C3220.75 1260.53 3219.72 1261.56 3219.72 1262.59 3219.72 1263.62 3220.75 1264.66 3221.78 1264.66L3244.47 1264.66C3247.91 1264.66 3250.66 1265.34 3248.94 1267.75L3206.66 1321.03C3198.41 1331.34 3160.25 1336.16 3152.69 1336.16L3296.37 1067.34C3297.75 1064.25 3303.25 1059.44 3308.41 1059.44L3339 1059.44C3353.09 1059.44 3352.75 1049.81 3340.37 1049.81L3187.75 1049.81C3175.37 1049.81 3175.03 1059.44 3189.12 1059.44L3217.66 1059.44C3225.91 1059.44 3228.31 1064.25 3226.25 1068.38L3222.12 1075.94C3220.75 1078.34 3218.69 1079.38 3211.12 1079.38L3160.59 1079.38C3159.56 1079.38 3158.53 1080.41 3158.53 1081.44 3158.53 1082.47 3159.56 1083.5 3160.59 1083.5L3210.78 1083.5C3213.53 1083.5 3217.66 1084.19 3215.25 1089.34L3208.03 1102.41C3206.66 1104.47 3203.56 1105.5 3200.12 1105.5L3177.44 1105.5C3176.41 1105.5 3175.37 1106.53 3175.37 1107.56 3175.37 1108.59 3176.41 1109.62 3177.44 1109.62L3200.12 1109.62C3203.56 1109.62 3203.56 1111.69 3201.5 1114.78L3185.34 1145.03C3183.97 1147.78 3181.22 1148.12 3176.06 1148.12L3166.78 1148.12C3165.75 1148.12 3164.72 1149.16 3164.72 1150.19 3164.72 1151.22 3165.75 1152.25 3166.78 1152.25L3176.06 1152.25C3179.5 1152.25 3180.53 1154.31 3178.81 1157.41L3165.75 1182.16C3163.69 1185.59 3160.94 1187.31 3152.34 1187.31L3102.16 1187.31C3101.12 1187.31 3100.09 1188.34 3100.09 1189.38 3100.09 1190.41 3101.12 1191.44 3102.16 1191.44L3152.34 1191.44C3158.19 1191.44 3160.25 1194.19 3157.84 1198.31L3132.06 1247.12C3130.34 1249.19 3126.22 1249.53 3119.34 1249.53L3068.81 1249.53C3067.78 1249.53 3066.75 1250.56 3066.75 1251.59 3066.75 1252.62 3067.78 1253.66 3068.81 1253.66L3118.66 1253.66C3124.84 1253.66 3128.62 1254 3126.56 1257.09L3111.78 1285.28C3109.03 1289.75 3101.12 1289.75 3098.37 1289.75L3082.56 1289.75C3081.53 1289.75 3080.5 1290.78 3080.5 1291.81 3080.5 1292.84 3081.53 1293.88 3082.56 1293.88L3098.37 1293.88C3103.87 1293.88 3106.97 1294.91 3105.59 1298L3085.66 1335.47C3083.94 1338.91 3076.03 1338.91 3070.19 1338.91L2992.16 1338.91C2991.12 1338.91 2990.09 1339.94 2990.09 1340.97 2990.09 1342 2991.12 1343.03 2992.16 1343.03L3069.84 1343.03C3075 1343.03 3081.19 1343.72 3079.12 1347.84L3066.41 1371.91C3065.03 1373.97 3060.91 1373.97 3054.72 1373.97L3038.91 1373.97C3037.87 1373.97 3036.84 1375 3036.84 1376.03 3036.84 1377.06 3037.87 1378.09 3038.91 1378.09L3054.72 1378.09C3058.5 1378.09 3063.31 1378.44 3061.59 1381.53L3053.69 1396.66C3050.94 1400.44 3048.53 1403.88 3042.69 1403.88L3002.47 1403.88C2988.37 1403.88 2988.72 1413.5 3001.09 1413.5L3229.69 1413.5C3236.56 1413.5 3236.56 1412.47 3240 1407.66L3273.69 1348.53 3446.94 1348.53C3459.66 1345.09 3456.22 1335.47 3449 1335.12M3312.87 1317.59C3311.16 1327.56 3301.53 1333.75 3289.16 1336.84L3276.44 1339.94 3287.09 1321.03C3289.84 1315.88 3283.66 1312.78 3277.12 1320.34 3232.78 1371.91 3219.03 1396.66 3150.62 1397L3132.06 1397C3126.56 1397 3120.72 1394.94 3124.16 1389.44L3148.22 1344.41 3240 1344.41C3252.37 1344.41 3249.28 1334.78 3242.06 1334.44 3237.25 1334.44 3231.75 1331.34 3228.31 1325.5 3227.28 1323.78 3224.87 1317.25 3228.66 1312.44L3263.72 1265.69 3321.47 1265.69 3312.87 1317.59ZM3326.28 1258.81 3269.56 1258.81 3341.75 1163.59 3326.28 1258.81Z" fill="#542C81" fill-rule="nonzero" fill-opacity="1"/><path d="M4192.88 1288.03C4191.84 1283.22 4190.12 1286.31 4187.03 1292.16 4186 1293.88 4182.91 1293.88 4180.16 1293.88L4170.88 1293.88C4169.84 1293.88 4168.81 1294.91 4168.81 1295.94 4168.81 1296.97 4169.84 1298 4170.88 1298L4180.16 1298C4183.59 1298 4183.59 1300.41 4182.22 1303.84 4175.69 1317.25 4169.5 1326.19 4160.91 1337.19 4159.53 1338.91 4156.09 1340.28 4153.34 1340.28L4144.06 1340.28C4143.03 1340.28 4142 1341.31 4142 1342.34 4142 1343.38 4143.03 1344.41 4144.06 1344.41L4153.34 1344.41C4157.81 1344.41 4153.34 1347.16 4152.66 1348.19 4136.84 1369.5 4125.5 1379.12 4114.16 1388.41 4112.78 1389.44 4105.91 1389.09 4101.78 1389.09L4092.5 1389.09C4091.47 1389.09 4090.44 1390.12 4090.44 1391.16 4090.44 1392.19 4091.47 1393.22 4092.5 1393.22L4101.44 1393.22C4108.31 1393.22 4103.16 1397.34 4102.12 1398.03 4077.03 1418.66 4040.25 1425.53 4023.41 1423.47 3968.06 1416.59 3957.06 1374.66 3952.94 1358.16 3951.91 1354.72 3949.5 1347.5 3948.47 1343.03 3946.75 1334.09 3971.5 1332.03 3978.72 1336.16 3989.37 1343.38 4013.09 1350.25 4032.69 1350.25 4050.22 1350.25 4086.66 1337.53 4096.97 1307.28 4107.97 1276 4080.81 1241.97 4068.78 1229.59 4053.66 1214.47 4039.22 1190.41 4045.41 1172.53 4049.87 1159.47 4057.44 1153.28 4073.94 1153.28 4094.91 1153.28 4110.38 1166.69 4110.38 1186.28 4110.38 1188 4109.34 1190.06 4107.97 1190.06L4100.41 1190.06C4099.37 1190.06 4098.34 1191.09 4098.34 1192.12 4098.34 1193.16 4099.37 1194.19 4100.41 1194.19L4107.62 1194.19C4109.69 1194.19 4110.72 1195.56 4110.38 1198.31 4109 1204.84 4108.66 1209.31 4106.94 1215.5 4106.25 1219.28 4111.75 1222.03 4113.47 1219.28L4146.81 1160.16C4149.22 1155.69 4143.72 1154.31 4139.94 1155.69 4130.66 1158.78 4116.22 1161.19 4110.72 1157.41 4098.34 1148.47 4087 1142.97 4069.81 1142.97 4040.25 1142.97 4019.62 1150.19 4006.56 1174.59 4005.53 1176.66 4002.44 1176.31 4000.03 1176.31L3994.19 1176.31C3993.16 1176.31 3992.12 1177.34 3992.12 1178.38 3992.12 1179.41 3993.16 1180.44 3994.19 1180.44L3999 1180.44C4001.06 1180.44 4002.44 1181.12 4001.41 1183.53 4000.37 1185.59 3999.69 1188 3999 1190.41 3995.56 1201.06 3996.59 1215.5 4002.09 1228.56 4002.44 1229.59 4001.41 1229.94 3999.34 1229.94L3990.06 1229.94C3989.03 1229.94 3988 1230.97 3988 1232 3988 1233.03 3989.03 1234.06 3990.06 1234.06L3999.34 1234.06C4003.47 1234.06 4004.5 1234.41 4006.22 1236.81 4011.03 1243.34 4015.84 1248.16 4021.34 1255.72 4023.41 1258.12 4015.16 1258.81 4010.69 1258.81L3975.28 1258.81C3974.25 1258.81 3973.22 1259.84 3973.22 1260.88 3973.22 1261.91 3974.25 1262.94 3975.28 1262.94L4011.37 1262.94C4017.22 1262.94 4027.19 1262.94 4028.22 1263.97 4037.16 1274.28 4047.47 1289.75 4049.19 1302.47 4049.53 1306.25 4048.16 1307.97 4043.69 1307.97L4038.87 1307.97C4037.84 1307.97 4036.81 1309 4036.81 1310.03 4036.81 1311.06 4037.84 1312.09 4038.87 1312.09L4043.34 1312.09C4047.12 1312.09 4049.19 1312.78 4048.16 1315.53 4043.34 1330.31 4036.47 1341.31 4007.94 1341.31 3977.69 1341.31 3971.84 1311.75 3980.44 1281.16 3982.16 1274.97 3980.44 1272.22 3977.69 1277.03L3956.72 1310.03C3956.03 1310.72 3954.31 1312.78 3950.87 1312.78L3947.78 1312.78C3946.75 1312.78 3945.72 1313.81 3945.72 1314.84 3945.72 1315.88 3946.75 1316.91 3947.78 1316.91 3950.53 1316.91 3951.56 1318.28 3950.53 1319.66L3942.62 1331.34C3930.25 1302.47 3908.94 1267.06 3897.59 1254L3897.94 1253.31C3925.78 1251.59 3966.69 1225.47 3973.56 1202.09 3984.91 1161.88 3945.72 1146.75 3924.41 1146.75L3830.22 1146.75C3817.84 1146.75 3816.81 1156.38 3828.84 1156.38 3835.37 1156.38 3840.87 1162.22 3838.12 1167.72L3817.16 1205.19C3815.44 1208.28 3808.91 1208.28 3800.66 1208.28L3791.37 1208.28C3790.34 1208.28 3789.31 1209.31 3789.31 1210.34 3789.31 1211.38 3790.34 1212.41 3791.37 1212.41L3800.31 1212.41C3806.5 1212.41 3812.69 1212.75 3810.97 1217.22L3786.22 1261.56C3784.84 1263.62 3781.75 1263.97 3773.5 1263.97L3764.22 1263.97C3763.19 1263.97 3762.16 1265 3762.16 1266.03 3762.16 1267.06 3763.19 1268.09 3764.22 1268.09L3773.16 1268.09C3780.03 1268.09 3782.44 1269.12 3780.37 1272.56L3747.37 1332.03C3743.25 1336.5 3738.78 1337.19 3730.87 1337.19 3719.19 1337.19 3719.19 1346.81 3731.56 1346.81L3812 1346.81C3824.37 1346.81 3821.62 1336.84 3814.06 1336.84 3809.59 1336.84 3805.12 1328.59 3807.87 1324.12L3848.78 1246.09 3852.91 1246.09C3871.12 1246.09 3875.59 1276.34 3879.03 1308.66 3879.37 1311.06 3874.91 1311.06 3865.97 1311.06L3842.94 1311.06C3841.91 1311.06 3840.87 1312.09 3840.87 1313.12 3840.87 1314.16 3841.91 1315.19 3842.94 1315.19L3865.62 1315.19C3871.81 1315.19 3879.72 1315.19 3880.06 1317.25 3881.78 1331.34 3882.81 1344.41 3885.56 1355.75 3886.59 1359.53 3880.06 1358.84 3873.19 1358.84L3843.62 1358.84C3842.59 1358.84 3841.56 1359.88 3841.56 1360.91 3841.56 1361.94 3842.59 1362.97 3843.62 1362.97L3872.84 1362.97C3882.12 1362.97 3886.59 1362.97 3886.94 1364.69 3899.31 1410.75 3953.28 1446.84 4005.53 1444.78 4050.22 1443.06 4088.03 1418.66 4107.28 1403.19 4133.06 1382.56 4170.88 1339.25 4186.34 1307.62 4189.09 1300.75 4193.91 1293.19 4192.88 1288.03M3891.06 1226.84C3884.53 1232 3874.91 1237.84 3873.19 1236.12 3870.44 1233.38 3862.19 1227.53 3857.72 1225.47L3894.84 1157.41C3896.56 1155 3898.28 1153.62 3902.41 1153.62 3916.84 1153.62 3921.66 1169.44 3914.78 1189.03 3909.97 1202.78 3902.41 1217.91 3891.06 1226.84" fill="#542C81" fill-rule="nonzero" fill-opacity="1"/><path d="M3438 1085.22C3430.44 1095.19 3420.47 1097.25 3409.12 1097.25L3406.03 1097.25 3425.97 1058.06C3427 1056.34 3429.06 1054.97 3431.81 1054.97 3434.22 1054.97 3433.87 1049.81 3430.78 1049.81L3399.5 1049.81C3396.75 1049.81 3395.72 1054.97 3398.47 1054.97 3401.22 1054.97 3401.56 1058.06 3400.53 1060.47L3383 1095.19C3381.62 1097.25 3379.91 1097.59 3377.5 1098.28 3374.75 1098.97 3373.03 1103.78 3376.12 1103.78L3425.97 1103.78C3429.75 1103.78 3430.78 1102.41 3431.81 1101.03L3442.12 1085.56C3442.12 1083.84 3439.37 1083.5 3438 1085.22" fill="#542C81" fill-rule="nonzero" fill-opacity="1"/><path d="M3933.69 1065.28 3938.16 1057.03C3940.22 1053.59 3936.78 1049.47 3931.97 1049.47L3873.87 1049.47C3869.75 1049.47 3870.78 1053.94 3872.5 1053.94 3876.28 1053.94 3877.31 1058.41 3875.25 1062.53L3857.72 1094.84C3854.97 1097.94 3853.25 1099.31 3849.47 1099.31 3846.37 1099.31 3845.34 1103.78 3849.47 1103.78L3908.25 1103.78C3910.66 1103.78 3911.69 1102.75 3912.72 1101.72L3920.97 1091.06C3923.03 1088.31 3918.56 1088.31 3917.53 1089.69 3907.22 1100 3896.56 1099.66 3888.31 1099.66L3881.44 1099.66 3889.69 1081.78 3891.41 1081.78C3896.56 1081.78 3902.41 1081.78 3904.12 1085.91 3904.47 1086.94 3907.22 1087.62 3908.25 1085.91L3915.12 1072.16C3916.16 1070.09 3913.06 1069.75 3912.37 1071.12 3909.62 1075.94 3897.94 1074.56 3894.5 1074.56L3892.78 1074.56 3903.09 1054.62 3914.09 1054.62C3921.31 1054.62 3926.81 1059.78 3928.87 1064.94 3929.56 1065.97 3933 1067 3933.69 1065.28" fill="#542C81" fill-rule="nonzero" fill-opacity="1"/><path d="M4151.62 1051.53C4150.25 1052.22 4146.47 1052.91 4144.75 1051.53 4140.62 1048.09 4133.06 1045.69 4128.94 1045.69 4117.25 1045.69 4108.66 1048.09 4103.5 1059.09 4099.03 1068.72 4103.5 1076.28 4114.16 1081.44 4118.62 1083.5 4124.81 1086.25 4122.41 1091.75 4120.69 1095.88 4115.88 1096.22 4111.75 1096.22 4106.25 1096.22 4098 1092.09 4096.62 1084.19 4096.28 1081.44 4093.19 1082.12 4092.16 1083.5L4084.94 1097.59C4083.91 1099.66 4086.66 1101.72 4088.03 1100.34 4090.44 1097.59 4095.94 1097.25 4098.34 1098.97 4101.78 1101.38 4110.72 1105.5 4116.22 1105.5 4127.91 1105.5 4135.81 1102.41 4142.69 1092.44 4148.87 1082.81 4145.09 1073.88 4134.09 1068.72 4128.25 1065.97 4123.44 1061.16 4125.84 1056 4127.56 1052.56 4132.72 1053.25 4135.47 1053.59 4140.28 1054.28 4146.47 1059.09 4147.16 1063.22 4147.5 1064.94 4149.56 1065.28 4150.59 1063.56L4154.37 1054.62C4155.06 1052.22 4152.31 1050.84 4151.62 1051.53" fill="#542C81" fill-rule="nonzero" fill-opacity="1"/><path d="M3995.56 1085.22C3988 1095.19 3978.03 1097.25 3966.69 1097.25L3963.59 1097.25 3983.53 1058.06C3984.56 1056.34 3986.62 1054.97 3989.37 1054.97 3991.78 1054.97 3991.44 1049.81 3988.34 1049.81L3957.06 1049.81C3954.31 1049.81 3953.28 1054.97 3956.03 1054.97 3958.78 1054.97 3959.12 1058.06 3958.09 1060.47L3940.56 1095.19C3939.19 1097.25 3937.47 1097.59 3935.06 1098.28 3932.31 1098.97 3930.59 1103.78 3933.69 1103.78L3983.53 1103.78C3987.31 1103.78 3988.34 1102.41 3989.37 1101.03L3999.69 1085.56C3999.69 1083.84 3996.94 1083.5 3995.56 1085.22" fill="#542C81" fill-rule="nonzero" fill-opacity="1"/><path d="M4070.5 1054.62C4077.72 1054.62 4083.22 1059.78 4085.28 1064.94 4085.62 1066.31 4089.41 1067.34 4090.44 1065.62L4094.91 1057.38C4096.97 1053.94 4093.53 1049.81 4088.72 1049.81L4030.62 1049.81C4026.5 1049.81 4027.53 1054.28 4029.25 1054.28 4033.03 1054.28 4034.06 1058.75 4032 1062.88L4014.47 1095.19C4011.72 1098.28 4010 1099.66 4006.22 1099.66 4003.12 1099.66 4002.09 1104.12 4006.22 1104.12L4065 1104.12C4067.41 1104.12 4068.44 1103.09 4069.47 1102.06L4077.72 1091.41C4079.78 1088.66 4075.31 1088.66 4074.28 1090.03 4063.97 1100.34 4053.31 1100 4045.06 1100L4038.19 1100 4046.44 1082.12 4048.16 1082.12C4053.31 1082.12 4059.16 1082.12 4060.87 1085.91 4061.22 1086.94 4063.97 1087.62 4065 1085.91L4071.87 1072.16C4072.91 1070.09 4069.81 1069.75 4069.12 1071.12 4066.37 1075.94 4054.69 1074.56 4051.25 1074.56L4049.53 1074.56 4059.84 1054.62 4070.84 1054.62Z" fill="#542C81" fill-rule="nonzero" fill-opacity="1"/><path d="M3784.84 1049.81 3764.22 1049.81C3760.09 1049.81 3761.12 1054.28 3762.84 1054.28 3767.31 1054.28 3771.44 1059.44 3769.03 1064.25L3760.44 1079.72 3741.53 1051.88C3740.16 1050.16 3737.06 1049.12 3734.66 1049.12L3714.37 1049.12C3710.25 1049.12 3710.94 1053.59 3713 1053.59 3717.47 1053.59 3716.09 1057.03 3715.06 1059.09L3698.91 1090.38C3697.87 1092.78 3693.41 1093.12 3692.03 1090.03L3679.66 1049.12C3678.97 1047.41 3671.75 1047.41 3669.69 1049.12L3638.06 1075.25 3621.91 1075.25C3618.47 1075.25 3617.44 1076.62 3617.44 1078.34 3617.44 1080.06 3618.81 1081.78 3622.25 1081.78L3630.84 1081.78 3622.25 1089C3617.44 1092.44 3612.62 1097.59 3609.53 1097.59L3607.47 1097.59C3604.37 1097.59 3602.66 1097.94 3602.66 1100.69 3602.66 1103.09 3604.03 1104.12 3606.78 1104.12L3632.22 1104.12C3637.03 1104.12 3636 1097.94 3633.59 1097.94 3630.84 1097.94 3626.37 1094.5 3630.5 1089.69L3638.41 1082.12 3653.53 1082.12C3662.81 1082.12 3668.66 1092.78 3663.84 1095.88L3659.72 1098.28C3657.66 1099.31 3656.97 1104.12 3659.72 1104.12L3709.56 1104.12C3713.34 1104.12 3712.66 1099.31 3710.94 1099.31 3705.78 1099.31 3708.19 1091.75 3709.22 1090.03L3722.28 1065.28 3740.5 1100.69C3741.87 1103.09 3742.91 1104.12 3744.97 1104.12L3752.19 1104.12C3754.59 1104.12 3755.28 1102.75 3756.31 1101.03L3777.28 1063.56C3780.72 1056.69 3783.47 1054.62 3787.59 1054.62 3787.94 1054.62 3789.31 1049.81 3784.84 1049.81M3645.97 1075.59 3665.22 1059.78 3665.22 1075.59 3645.97 1075.59Z" fill="#542C81" fill-rule="nonzero" fill-opacity="1"/><path d="M3490.94 1047.75C3473.41 1047.75 3455.53 1056.34 3452.09 1074.91 3449 1090.72 3460 1107.56 3479.59 1107.56 3498.16 1107.56 3515 1095.53 3518.78 1077.66 3521.87 1059.78 3508.47 1047.75 3490.94 1047.75M3495.75 1081.44C3490.25 1092.44 3480.97 1098.97 3475.12 1095.88 3469.28 1092.78 3468.94 1081.78 3474.44 1070.44 3479.94 1059.44 3489.22 1052.91 3495.06 1056 3501.25 1059.09 3501.59 1070.09 3495.75 1081.44" fill="#542C81" fill-rule="nonzero" fill-opacity="1"/><path d="M3587.87 1051.53C3586.5 1052.22 3582.72 1052.91 3581 1051.53 3576.87 1048.09 3569.31 1045.69 3565.19 1045.69 3553.5 1045.69 3544.91 1048.09 3539.75 1059.09 3535.28 1068.72 3539.75 1076.28 3550.41 1081.44 3554.87 1083.5 3561.06 1086.25 3558.66 1091.75 3556.94 1095.88 3552.12 1096.22 3548 1096.22 3542.5 1096.22 3534.25 1092.09 3532.87 1084.19 3532.53 1081.44 3529.44 1082.12 3528.41 1083.5L3521.19 1097.59C3520.16 1099.66 3522.91 1101.72 3524.28 1100.34 3526.69 1097.59 3531.84 1097.25 3534.59 1098.97 3538.03 1101.38 3546.97 1105.5 3552.47 1105.5 3564.16 1105.5 3572.06 1102.41 3578.94 1092.44 3585.12 1082.81 3581.34 1073.88 3570.34 1068.72 3564.5 1065.97 3559.69 1061.16 3562.09 1056 3563.81 1052.56 3568.97 1053.25 3571.72 1053.59 3576.53 1054.28 3582.72 1059.09 3583.41 1063.22 3583.75 1064.94 3585.81 1065.28 3586.84 1063.56L3590.62 1054.62C3591.66 1052.22 3588.91 1050.84 3587.87 1051.53" fill="#542C81" fill-rule="nonzero" fill-opacity="1"/><path d="M3843.97 1074.22 3821.62 1074.22C3817.5 1074.22 3818.53 1078.69 3820.25 1078.69 3821.97 1078.69 3823.69 1079.72 3823.69 1082.47 3823.69 1091.75 3819.91 1094.84 3812.34 1094.84 3803.75 1094.84 3801 1084.19 3806.5 1071.81 3810.28 1063.56 3819.91 1056.34 3831.59 1056.34 3838.81 1056.34 3844.31 1058.06 3845.34 1064.59 3845.69 1066.31 3848.09 1066.31 3848.78 1064.59L3854.28 1054.97C3854.97 1053.94 3853.94 1052.56 3852.22 1052.56 3850.84 1052.56 3847.75 1054.28 3845.69 1052.91 3841.22 1049.47 3831.59 1046.38 3824.03 1046.38 3812 1046.38 3795.16 1049.12 3783.81 1068.72 3773.5 1086.59 3788.62 1105.16 3802.37 1105.16 3810.28 1105.16 3818.87 1099.31 3824.03 1097.25L3829.87 1101.03C3830.91 1102.06 3832.62 1103.44 3834.34 1103.44L3836.41 1103.44C3838.47 1103.44 3839.16 1100.69 3839.84 1098.97L3848.78 1077.66C3849.47 1075.94 3848.78 1074.22 3843.97 1074.22" fill="#542C81" fill-rule="nonzero" fill-opacity="1"/></g></g></g></g></g></svg>