<svg width="1196" height="1912" xmlns="http://www.w3.org/2000/svg" xmlns:xlink="http://www.w3.org/1999/xlink" xml:space="preserve" overflow="hidden"><g transform="translate(-1086 -517)"><g><g><g><g><path d="M276.21 400.356C276.21 400.356 374.517 239.679 575.586 239.679 776.655 239.679 870.507 395.604 870.507 395.604L1143.45 395.604 1132.76 462.726C1132.76 462.726 1124.74 489.456 1112.56 492.129L1131.27 492.129C1131.27 492.129 1137.51 515.592 1100.09 596.673L1179.68 596.673C1179.68 596.673 1182.95 738.639 1011.29 805.761 1011.29 805.761 922.482 833.976 877.041 785.565 877.041 785.565 786.753 953.964 576.18 953.964 365.607 953.964 269.973 780.813 269.973 780.813L24.948 780.813 63.855 710.721 37.422 710.721 68.607 653.103 121.77 653.103 131.274 631.125 106.326 631.125 167.211 518.859 201.366 518.859 215.325 484.704 185.625 484.704 231.066 400.356 276.21 400.356Z" fill="#FFFFFF" fill-rule="nonzero" fill-opacity="1" transform="matrix(1.00084 0 0 1 1090 1238)"/><path d="M578.556 916.542C750.816 916.542 890.406 774.873 890.406 599.94 890.406 425.007 750.816 283.338 578.556 283.338 406.296 283.338 266.706 425.007 266.706 599.94 266.706 774.873 406.296 916.542 578.556 916.542" fill="#FAB624" fill-rule="nonzero" fill-opacity="1" transform="matrix(1.00084 0 0 1 1090 1238)"/><path d="M823.581 395.307C819.72 390.852 814.077 381.348 775.764 347.787 719.334 298.782 644.787 276.21 574.398 276.21 522.72 276.21 477.279 287.793 427.383 315.414 363.231 350.46 337.095 391.149 330.561 399.465 325.809 405.702 324.918 408.969 328.185 410.751 330.561 411.939 334.719 407.187 338.58 401.841 357.588 376.596 382.536 351.945 408.672 337.095 416.988 338.283 428.274 349.569 432.729 355.806 415.8 365.013 387.882 386.1 377.487 394.416 368.28 401.544 365.31 405.405 367.686 408.375 369.765 410.751 376.893 405.999 382.536 401.247 392.634 392.931 422.631 371.844 437.481 363.825 447.579 375.408 444.312 397.386 440.748 402.435 438.669 405.108 438.669 407.781 440.748 408.969 442.827 410.157 445.203 407.187 448.173 402.732 455.301 392.931 452.331 368.577 446.391 359.964 464.508 348.975 490.644 341.253 506.385 337.689 507.87 340.362 526.878 396.198 530.442 405.999 532.521 411.642 534.6 418.176 538.461 416.691 541.134 415.8 539.352 409.563 536.976 403.623 534.006 395.901 519.75 349.272 515.295 335.313 520.641 332.343 551.826 326.106 559.845 326.403 555.984 346.896 570.24 355.212 586.872 365.904 595.782 371.547 650.727 403.326 662.31 410.454 668.844 414.612 673.893 417.285 675.378 415.206 676.863 412.83 672.408 408.375 666.171 405.108 661.122 402.138 610.038 372.438 588.654 358.776 573.21 349.272 564.894 338.58 568.755 325.215 573.804 323.73 589.248 323.73 605.286 323.73 714.582 324.621 802.494 387.585 812.295 397.386 817.344 402.435 824.175 406.89 826.848 404.811 828.927 403.92 825.957 397.98 823.581 395.307M441.936 351.945C438.966 346.896 425.007 334.422 417.582 331.749 435.105 318.978 475.794 300.267 491.238 297 493.911 301.455 501.039 320.463 503.415 328.185 490.05 331.155 453.816 344.52 441.936 351.945M561.627 316.899C547.371 317.79 521.532 323.433 512.325 326.106 509.949 319.869 503.415 300.564 501.336 294.624 527.769 287.199 558.063 284.823 581.823 286.605 574.992 291.357 564.003 310.959 561.627 316.899M632.61 316.008C608.85 314.226 589.545 313.632 572.616 315.414 577.665 303.237 587.169 291.357 594.891 286.605 610.929 287.199 627.561 289.575 641.223 292.248 683.694 300.861 749.331 326.403 777.843 364.419 739.827 338.877 676.863 318.978 632.61 316.008" fill="#0B1A23" fill-rule="nonzero" fill-opacity="1" transform="matrix(1.00084 0 0 1 1090 1238)"/><path d="M847.341 770.121C851.499 762.696 854.766 758.538 851.202 756.459 847.935 754.677 844.965 761.805 841.104 768.042 828.333 790.317 814.374 808.731 782.892 837.243 748.143 869.022 707.751 887.436 693.792 892.188 681.912 858.924 636.471 716.364 635.283 712.206 633.501 705.969 632.016 704.187 629.937 705.078 627.561 705.969 629.046 709.236 630.234 714.582 631.422 719.928 685.476 888.327 687.258 894.564 676.566 899.91 633.204 912.087 602.613 912.978 575.289 913.869 543.807 912.978 527.769 909.117 509.058 893.97 465.993 833.382 449.955 801.306 430.65 763.29 418.176 728.541 414.909 713.691 413.424 706.563 411.345 701.514 407.781 702.405 403.92 703.296 405.999 708.939 408.375 716.364 414.315 735.966 423.522 763.587 443.421 803.088 464.508 844.965 502.227 893.673 513.216 907.335 478.764 899.91 436.887 883.872 397.089 854.469 362.934 828.927 333.234 796.257 318.384 772.497 315.711 768.339 312.741 762.696 309.177 765.072 307.395 766.26 309.474 771.012 312.147 775.17 333.828 813.78 386.1 868.428 453.519 898.722 531.927 933.768 617.166 931.689 694.089 902.286 760.617 875.853 818.532 822.69 847.341 770.121" fill="#0B1A23" fill-rule="nonzero" fill-opacity="1" transform="matrix(1.00084 0 0 1 1090 1238)"/><path d="M720.819 632.61C691.713 667.953 675.081 680.13 645.678 680.13 635.877 680.13 630.531 677.754 633.204 673.002L668.25 602.613 681.615 602.613C696.465 602.613 694.386 615.087 690.525 632.016 689.634 634.392 691.713 634.689 693.495 632.61L726.759 574.101C728.541 570.24 724.086 569.646 722.007 572.319 705.375 595.188 687.852 593.406 680.13 593.406L673.893 593.406 711.315 521.829 726.462 521.829C745.47 523.017 754.38 539.055 749.034 577.962L757.053 577.962 784.674 523.611C787.05 518.859 782.001 514.701 776.952 514.701L590.139 514.701C579.447 514.701 578.853 523.017 589.248 523.017 597.861 523.017 597.267 534.897 589.545 540.837L510.246 603.801 526.284 678.051C527.472 683.694 531.036 686.367 537.273 686.367L692.01 686.367C698.544 686.367 701.217 683.694 702.999 681.021L731.214 632.907C734.481 626.076 725.571 626.67 720.819 632.61M612.711 598.455 599.049 598.455C598.158 598.455 597.267 599.346 597.267 600.237 597.267 601.128 598.158 602.019 599.049 602.019L612.711 602.019C617.463 602.019 621.918 602.613 620.73 604.692L585.09 672.408C580.635 680.724 571.428 678.645 569.943 672.111L552.123 580.635 614.493 532.521C620.73 527.175 632.61 518.562 638.847 518.859L652.212 518.859C660.528 518.859 663.201 522.72 661.716 527.769L659.34 532.521C657.855 535.194 652.806 535.491 648.945 535.491L640.926 535.491C640.035 535.491 639.144 536.382 639.144 537.273 639.144 538.164 640.035 539.055 640.926 539.055L648.648 539.055C651.915 539.055 656.37 539.055 654.588 541.728L625.779 596.673C623.997 598.158 618.057 598.455 612.711 598.455" fill="#542C81" fill-rule="nonzero" fill-opacity="1" transform="matrix(1.00084 0 0 1 1090 1238)"/><path d="M484.704 678.348C480.546 678.348 477.576 675.378 476.685 672.408 475.2 668.25 475.497 661.419 476.982 658.449L549.153 530.739C550.341 528.363 553.311 523.314 556.875 523.314 563.409 523.314 566.082 514.701 555.093 514.701L497.475 514.701C486.783 514.701 486.783 523.017 496.881 523.017 501.039 523.017 502.821 527.175 501.633 529.848L485.595 558.657C483.516 561.924 479.061 562.221 474.606 562.221L460.944 562.221C460.053 562.221 459.162 563.112 459.162 564.003 459.162 564.894 460.053 565.785 460.944 565.785L474.606 565.785C478.467 565.785 481.437 566.973 479.061 571.428L425.898 668.547C422.037 673.893 414.612 675.081 414.909 664.686L433.917 522.423C434.808 517.968 433.62 514.998 428.571 514.998L399.762 514.998C396.198 514.998 394.119 516.78 392.634 518.859L382.536 531.63C381.051 533.115 378.378 533.115 375.111 533.115L351.054 533.115C350.163 533.115 349.272 534.006 349.272 534.897 349.272 535.788 350.163 536.679 351.054 536.679L370.656 536.679C374.22 536.679 378.378 537.57 376.893 539.055L349.272 573.507C348.381 574.398 345.708 574.695 343.926 574.695L335.907 574.695C335.016 574.695 334.125 575.586 334.125 576.477 334.125 577.368 335.016 578.259 335.907 578.259L342.441 578.259C344.52 578.259 344.52 579.15 343.629 580.041L317.79 612.414C316.305 613.602 313.929 613.899 311.256 613.899L288.387 613.899C287.496 613.899 286.605 614.79 286.605 615.681 286.605 616.572 287.496 617.463 288.387 617.463L307.989 617.463C310.959 617.463 313.335 618.057 311.85 620.136L275.319 666.171C268.191 675.081 235.224 679.239 228.69 679.239L352.836 446.985C354.024 444.312 358.776 440.154 363.231 440.154L389.664 440.154C401.841 440.154 401.544 431.838 390.852 431.838L258.984 431.838C248.292 431.838 247.995 440.154 260.172 440.154L284.823 440.154C291.951 440.154 294.03 444.312 292.248 447.876L288.684 454.41C287.496 456.489 285.714 457.38 279.18 457.38L235.521 457.38C234.63 457.38 233.739 458.271 233.739 459.162 233.739 460.053 234.63 460.944 235.521 460.944L278.883 460.944C281.259 460.944 284.823 461.538 282.744 465.993L276.507 477.279C275.319 479.061 272.646 479.952 269.676 479.952L250.074 479.952C249.183 479.952 248.292 480.843 248.292 481.734 248.292 482.625 249.183 483.516 250.074 483.516L269.676 483.516C272.646 483.516 272.646 485.298 270.864 487.971L256.905 514.107C255.717 516.483 253.341 516.78 248.886 516.78L240.867 516.78C239.976 516.78 239.085 517.671 239.085 518.562 239.085 519.453 239.976 520.344 240.867 520.344L248.886 520.344C251.856 520.344 252.747 522.126 251.262 524.799L239.976 546.183C238.194 549.153 235.818 550.638 228.393 550.638L185.031 550.638C184.14 550.638 183.249 551.529 183.249 552.42 183.249 553.311 184.14 554.202 185.031 554.202L228.393 554.202C233.442 554.202 235.224 556.578 233.145 560.142L210.87 602.316C209.385 604.098 205.821 604.395 199.881 604.395L156.222 604.395C155.331 604.395 154.44 605.286 154.44 606.177 154.44 607.068 155.331 607.959 156.222 607.959L199.287 607.959C204.633 607.959 207.9 608.256 206.118 610.929L193.347 635.283C190.971 639.144 184.14 639.144 181.764 639.144L168.102 639.144C167.211 639.144 166.32 640.035 166.32 640.926 166.32 641.817 167.211 642.708 168.102 642.708L181.764 642.708C186.516 642.708 189.189 643.599 188.001 646.272L170.775 678.645C169.29 681.615 162.459 681.615 157.41 681.615L89.991 681.615C89.1 681.615 88.209 682.506 88.209 683.397 88.209 684.288 89.1 685.179 89.991 685.179L157.113 685.179C161.568 685.179 166.914 685.773 165.132 689.337L154.143 710.127C152.955 711.909 149.391 711.909 144.045 711.909L130.383 711.909C129.492 711.909 128.601 712.8 128.601 713.691 128.601 714.582 129.492 715.473 130.383 715.473L144.045 715.473C147.312 715.473 151.47 715.77 149.985 718.443L143.154 731.511C140.778 734.778 138.699 737.748 133.65 737.748L98.901 737.748C86.724 737.748 87.021 746.064 97.713 746.064L295.218 746.064C301.158 746.064 301.158 745.173 304.128 741.015L333.234 689.931 482.922 689.931C493.911 686.961 490.941 678.645 484.704 678.348M367.092 663.201C365.607 671.814 357.291 677.16 346.599 679.833L335.61 682.506 344.817 666.171C347.193 661.716 341.847 659.043 336.204 665.577 297.891 710.127 286.011 731.511 226.908 731.808L210.87 731.808C206.118 731.808 201.069 730.026 204.039 725.274L224.829 686.367 304.128 686.367C314.82 686.367 312.147 678.051 305.91 677.754 301.752 677.754 297 675.081 294.03 670.032 293.139 668.547 291.06 662.904 294.327 658.746L324.621 618.354 374.517 618.354 367.092 663.201ZM378.675 612.414 329.67 612.414 392.04 530.145 378.675 612.414Z" fill="#542C81" fill-rule="nonzero" fill-opacity="1" transform="matrix(1.00084 0 0 1 1090 1238)"/><path d="M1127.41 637.659C1126.52 633.501 1125.04 636.174 1122.36 641.223 1121.47 642.708 1118.8 642.708 1116.42 642.708L1108.4 642.708C1107.51 642.708 1106.62 643.599 1106.62 644.49 1106.62 645.381 1107.51 646.272 1108.4 646.272L1116.42 646.272C1119.39 646.272 1119.39 648.351 1118.2 651.321 1112.56 662.904 1107.22 670.626 1099.79 680.13 1098.6 681.615 1095.63 682.803 1093.26 682.803L1085.24 682.803C1084.35 682.803 1083.46 683.694 1083.46 684.585 1083.46 685.476 1084.35 686.367 1085.24 686.367L1093.26 686.367C1097.12 686.367 1093.26 688.743 1092.66 689.634 1079 708.048 1069.2 716.364 1059.4 724.383 1058.21 725.274 1052.27 724.977 1048.71 724.977L1040.69 724.977C1039.8 724.977 1038.91 725.868 1038.91 726.759 1038.91 727.65 1039.8 728.541 1040.69 728.541L1048.41 728.541C1054.35 728.541 1049.9 732.105 1049 732.699 1027.32 750.519 995.544 756.459 980.991 754.677 933.174 748.737 923.67 712.503 920.106 698.247 919.215 695.277 917.136 689.04 916.245 685.179 914.76 677.457 936.144 675.675 942.381 679.239 951.588 685.476 972.081 691.416 989.01 691.416 1004.16 691.416 1035.64 680.427 1044.55 654.291 1054.05 627.264 1030.59 597.861 1020.2 587.169 1007.13 574.101 994.653 553.311 999.999 537.867 1003.86 526.581 1010.39 521.235 1024.65 521.235 1042.77 521.235 1056.13 532.818 1056.13 549.747 1056.13 551.232 1055.24 553.014 1054.05 553.014L1047.52 553.014C1046.63 553.014 1045.74 553.905 1045.74 554.796 1045.74 555.687 1046.63 556.578 1047.52 556.578L1053.76 556.578C1055.54 556.578 1056.43 557.766 1056.13 560.142 1054.94 565.785 1054.65 569.646 1053.16 574.992 1052.57 578.259 1057.32 580.635 1058.81 578.259L1087.61 527.175C1089.69 523.314 1084.94 522.126 1081.67 523.314 1073.66 525.987 1061.18 528.066 1056.43 524.799 1045.74 517.077 1035.94 512.325 1021.09 512.325 995.544 512.325 977.724 518.562 966.438 539.649 965.547 541.431 962.874 541.134 960.795 541.134L955.746 541.134C954.855 541.134 953.964 542.025 953.964 542.916 953.964 543.807 954.855 544.698 955.746 544.698L959.904 544.698C961.686 544.698 962.874 545.292 961.983 547.371 961.092 549.153 960.498 551.232 959.904 553.311 956.934 562.518 957.825 574.992 962.577 586.278 962.874 587.169 961.983 587.466 960.201 587.466L952.182 587.466C951.291 587.466 950.4 588.357 950.4 589.248 950.4 590.139 951.291 591.03 952.182 591.03L960.201 591.03C963.765 591.03 964.656 591.327 966.141 593.406 970.299 599.049 974.457 603.207 979.209 609.741 980.991 611.82 973.863 612.414 970.002 612.414L939.411 612.414C938.52 612.414 937.629 613.305 937.629 614.196 937.629 615.087 938.52 615.978 939.411 615.978L970.596 615.978C975.645 615.978 984.258 615.978 985.149 616.869 992.871 625.779 1001.78 639.144 1003.27 650.133 1003.56 653.4 1002.38 654.885 998.514 654.885L994.356 654.885C993.465 654.885 992.574 655.776 992.574 656.667 992.574 657.558 993.465 658.449 994.356 658.449L998.217 658.449C1001.48 658.449 1003.27 659.043 1002.38 661.419 998.217 674.19 992.277 683.694 967.626 683.694 941.49 683.694 936.441 658.152 943.866 631.719 945.351 626.373 943.866 623.997 941.49 628.155L923.373 656.667C922.779 657.261 921.294 659.043 918.324 659.043L915.651 659.043C914.76 659.043 913.869 659.934 913.869 660.825 913.869 661.716 914.76 662.607 915.651 662.607 918.027 662.607 918.918 663.795 918.027 664.983L911.196 675.081C900.504 650.133 882.09 619.542 872.289 608.256L872.586 607.662C896.643 606.177 931.986 583.605 937.926 563.409 947.727 528.66 913.869 515.592 895.455 515.592L814.077 515.592C803.385 515.592 802.494 523.908 812.889 523.908 818.532 523.908 823.284 528.957 820.908 533.709L802.791 566.082C801.306 568.755 795.663 568.755 788.535 568.755L780.516 568.755C779.625 568.755 778.734 569.646 778.734 570.537 778.734 571.428 779.625 572.319 780.516 572.319L788.238 572.319C793.584 572.319 798.93 572.616 797.445 576.477L776.061 614.79C774.873 616.572 772.2 616.869 765.072 616.869L757.053 616.869C756.162 616.869 755.271 617.76 755.271 618.651 755.271 619.542 756.162 620.433 757.053 620.433L764.775 620.433C770.715 620.433 772.794 621.324 771.012 624.294L742.5 675.675C738.936 679.536 735.075 680.13 728.244 680.13 718.146 680.13 718.146 688.446 728.838 688.446L798.336 688.446C809.028 688.446 806.652 679.833 800.118 679.833 796.257 679.833 792.396 672.705 794.772 668.844L830.115 601.425 833.679 601.425C849.42 601.425 853.281 627.561 856.251 655.479 856.548 657.558 852.687 657.558 844.965 657.558L825.066 657.558C824.175 657.558 823.284 658.449 823.284 659.34 823.284 660.231 824.175 661.122 825.066 661.122L844.668 661.122C850.014 661.122 856.845 661.122 857.142 662.904 858.627 675.081 859.518 686.367 861.894 696.168 862.785 699.435 857.142 698.841 851.202 698.841L825.66 698.841C824.769 698.841 823.878 699.732 823.878 700.623 823.878 701.514 824.769 702.405 825.66 702.405L850.905 702.405C858.924 702.405 862.785 702.405 863.082 703.89 873.774 743.688 920.403 774.873 965.547 773.091 1004.16 771.606 1036.83 750.519 1053.46 737.154 1075.73 719.334 1108.4 681.912 1121.77 654.588 1124.15 648.648 1128.3 642.114 1127.41 637.659M866.646 584.793C861.003 589.248 852.687 594.297 851.202 592.812 848.826 590.436 841.698 585.387 837.837 583.605L869.913 524.799C871.398 522.72 872.883 521.532 876.447 521.532 888.921 521.532 893.079 535.194 887.139 552.123 882.981 564.003 876.447 577.071 866.646 584.793" fill="#542C81" fill-rule="nonzero" fill-opacity="1" transform="matrix(1.00084 0 0 1 1090 1238)"/><path d="M475.2 462.429C468.666 471.042 460.053 472.824 450.252 472.824L447.579 472.824 464.805 438.966C465.696 437.481 467.478 436.293 469.854 436.293 471.933 436.293 471.636 431.838 468.963 431.838L441.936 431.838C439.56 431.838 438.669 436.293 441.045 436.293 443.421 436.293 443.718 438.966 442.827 441.045L427.68 471.042C426.492 472.824 425.007 473.121 422.928 473.715 420.552 474.309 419.067 478.467 421.74 478.467L464.805 478.467C468.072 478.467 468.963 477.279 469.854 476.091L478.764 462.726C478.764 461.241 476.388 460.944 475.2 462.429" fill="#542C81" fill-rule="nonzero" fill-opacity="1" transform="matrix(1.00084 0 0 1 1090 1238)"/><path d="M903.474 445.203 907.335 438.075C909.117 435.105 906.147 431.541 901.989 431.541L851.796 431.541C848.232 431.541 849.123 435.402 850.608 435.402 853.875 435.402 854.766 439.263 852.984 442.827L837.837 470.745C835.461 473.418 833.976 474.606 830.709 474.606 828.036 474.606 827.145 478.467 830.709 478.467L881.496 478.467C883.575 478.467 884.466 477.576 885.357 476.685L892.485 467.478C894.267 465.102 890.406 465.102 889.515 466.29 880.605 475.2 871.398 474.903 864.27 474.903L858.33 474.903 865.458 459.459 866.943 459.459C871.398 459.459 876.447 459.459 877.932 463.023 878.229 463.914 880.605 464.508 881.496 463.023L887.436 451.143C888.327 449.361 885.654 449.064 885.06 450.252 882.684 454.41 872.586 453.222 869.616 453.222L868.131 453.222 877.041 435.996 886.545 435.996C892.782 435.996 897.534 440.451 899.316 444.906 899.91 445.797 902.88 446.688 903.474 445.203" fill="#542C81" fill-rule="nonzero" fill-opacity="1" transform="matrix(1.00084 0 0 1 1090 1238)"/><path d="M1091.77 433.323C1090.58 433.917 1087.32 434.511 1085.83 433.323 1082.27 430.353 1075.73 428.274 1072.17 428.274 1062.07 428.274 1054.65 430.353 1050.19 439.857 1046.33 448.173 1050.19 454.707 1059.4 459.162 1063.26 460.944 1068.61 463.32 1066.53 468.072 1065.04 471.636 1060.88 471.933 1057.32 471.933 1052.57 471.933 1045.44 468.369 1044.25 461.538 1043.95 459.162 1041.28 459.756 1040.39 460.944L1034.15 473.121C1033.26 474.903 1035.64 476.685 1036.83 475.497 1038.91 473.121 1043.66 472.824 1045.74 474.309 1048.71 476.388 1056.43 479.952 1061.18 479.952 1071.28 479.952 1078.11 477.279 1084.05 468.666 1089.4 460.35 1086.13 452.628 1076.62 448.173 1071.58 445.797 1067.42 441.639 1069.5 437.184 1070.98 434.214 1075.44 434.808 1077.81 435.105 1081.97 435.699 1087.32 439.857 1087.91 443.421 1088.21 444.906 1089.99 445.203 1090.88 443.718L1094.15 435.996C1094.74 433.917 1092.37 432.729 1091.77 433.323" fill="#542C81" fill-rule="nonzero" fill-opacity="1" transform="matrix(1.00084 0 0 1 1090 1238)"/><path d="M956.934 462.429C950.4 471.042 941.787 472.824 931.986 472.824L929.313 472.824 946.539 438.966C947.43 437.481 949.212 436.293 951.588 436.293 953.667 436.293 953.37 431.838 950.697 431.838L923.67 431.838C921.294 431.838 920.403 436.293 922.779 436.293 925.155 436.293 925.452 438.966 924.561 441.045L909.414 471.042C908.226 472.824 906.741 473.121 904.662 473.715 902.286 474.309 900.801 478.467 903.474 478.467L946.539 478.467C949.806 478.467 950.697 477.279 951.588 476.091L960.498 462.726C960.498 461.241 958.122 460.944 956.934 462.429" fill="#542C81" fill-rule="nonzero" fill-opacity="1" transform="matrix(1.00084 0 0 1 1090 1238)"/><path d="M1021.68 435.996C1027.92 435.996 1032.67 440.451 1034.45 444.906 1034.75 446.094 1038.02 446.985 1038.91 445.5L1042.77 438.372C1044.55 435.402 1041.58 431.838 1037.42 431.838L987.228 431.838C983.664 431.838 984.555 435.699 986.04 435.699 989.307 435.699 990.198 439.56 988.416 443.124L973.269 471.042C970.893 473.715 969.408 474.903 966.141 474.903 963.468 474.903 962.577 478.764 966.141 478.764L1016.93 478.764C1019.01 478.764 1019.9 477.873 1020.79 476.982L1027.92 467.775C1029.7 465.399 1025.84 465.399 1024.95 466.587 1016.04 475.497 1006.83 475.2 999.702 475.2L993.762 475.2 1000.89 459.756 1002.38 459.756C1006.83 459.756 1011.88 459.756 1013.36 463.023 1013.66 463.914 1016.04 464.508 1016.93 463.023L1022.87 451.143C1023.76 449.361 1021.09 449.064 1020.49 450.252 1018.12 454.41 1008.02 453.222 1005.05 453.222L1003.56 453.222 1012.47 435.996 1021.98 435.996Z" fill="#542C81" fill-rule="nonzero" fill-opacity="1" transform="matrix(1.00084 0 0 1 1090 1238)"/><path d="M774.873 431.838 757.053 431.838C753.489 431.838 754.38 435.699 755.865 435.699 759.726 435.699 763.29 440.154 761.211 444.312L753.786 457.677 737.451 433.62C736.263 432.135 733.59 431.244 731.511 431.244L713.988 431.244C710.424 431.244 711.018 435.105 712.8 435.105 716.661 435.105 715.473 438.075 714.582 439.857L700.623 466.884C699.732 468.963 695.871 469.26 694.683 466.587L683.991 431.244C683.397 429.759 677.16 429.759 675.378 431.244L648.054 453.816 634.095 453.816C631.125 453.816 630.234 455.004 630.234 456.489 630.234 457.974 631.422 459.459 634.392 459.459L641.817 459.459 634.392 465.696C630.234 468.666 626.076 473.121 623.403 473.121L621.621 473.121C618.948 473.121 617.463 473.418 617.463 475.794 617.463 477.873 618.651 478.764 621.027 478.764L643.005 478.764C647.163 478.764 646.272 473.418 644.193 473.418 641.817 473.418 637.956 470.448 641.52 466.29L648.351 459.756 661.419 459.756C669.438 459.756 674.487 468.963 670.329 471.636L666.765 473.715C664.983 474.606 664.389 478.764 666.765 478.764L709.83 478.764C713.097 478.764 712.503 474.606 711.018 474.606 706.563 474.606 708.642 468.072 709.533 466.587L720.819 445.203 736.56 475.794C737.748 477.873 738.639 478.764 740.421 478.764L746.658 478.764C748.737 478.764 749.331 477.576 750.222 476.091L768.339 443.718C771.309 437.778 773.685 435.996 777.249 435.996 777.546 435.996 778.734 431.838 774.873 431.838M654.885 454.113 671.517 440.451 671.517 454.113 654.885 454.113Z" fill="#542C81" fill-rule="nonzero" fill-opacity="1" transform="matrix(1.00084 0 0 1 1090 1238)"/><path d="M520.938 430.056C505.791 430.056 490.347 437.481 487.377 453.519 484.704 467.181 494.208 481.734 511.137 481.734 527.175 481.734 541.728 471.339 544.995 455.895 547.668 440.451 536.085 430.056 520.938 430.056M525.096 459.162C520.344 468.666 512.325 474.309 507.276 471.636 502.227 468.963 501.93 459.459 506.682 449.658 511.434 440.154 519.453 434.511 524.502 437.184 529.848 439.857 530.145 449.361 525.096 459.162" fill="#542C81" fill-rule="nonzero" fill-opacity="1" transform="matrix(1.00084 0 0 1 1090 1238)"/><path d="M604.692 433.323C603.504 433.917 600.237 434.511 598.752 433.323 595.188 430.353 588.654 428.274 585.09 428.274 574.992 428.274 567.567 430.353 563.112 439.857 559.251 448.173 563.112 454.707 572.319 459.162 576.18 460.944 581.526 463.32 579.447 468.072 577.962 471.636 573.804 471.933 570.24 471.933 565.488 471.933 558.36 468.369 557.172 461.538 556.875 459.162 554.202 459.756 553.311 460.944L547.074 473.121C546.183 474.903 548.559 476.685 549.747 475.497 551.826 473.121 556.281 472.824 558.657 474.309 561.627 476.388 569.349 479.952 574.101 479.952 584.199 479.952 591.03 477.279 596.97 468.666 602.316 460.35 599.049 452.628 589.545 448.173 584.496 445.797 580.338 441.639 582.417 437.184 583.902 434.214 588.357 434.808 590.733 435.105 594.891 435.699 600.237 439.857 600.831 443.421 601.128 444.906 602.91 445.203 603.801 443.718L607.068 435.996C607.959 433.917 605.583 432.729 604.692 433.323" fill="#542C81" fill-rule="nonzero" fill-opacity="1" transform="matrix(1.00084 0 0 1 1090 1238)"/><path d="M825.957 452.925 806.652 452.925C803.088 452.925 803.979 456.786 805.464 456.786 806.949 456.786 808.434 457.677 808.434 460.053 808.434 468.072 805.167 470.745 798.633 470.745 791.208 470.745 788.832 461.538 793.584 450.846 796.851 443.718 805.167 437.481 815.265 437.481 821.502 437.481 826.254 438.966 827.145 444.609 827.442 446.094 829.521 446.094 830.115 444.609L834.867 436.293C835.461 435.402 834.57 434.214 833.085 434.214 831.897 434.214 829.224 435.699 827.442 434.511 823.581 431.541 815.265 428.868 808.731 428.868 798.336 428.868 783.783 431.244 773.982 448.173 765.072 463.617 778.14 479.655 790.02 479.655 796.851 479.655 804.276 474.606 808.731 472.824L813.78 476.091C814.671 476.982 816.156 478.17 817.641 478.17L819.423 478.17C821.205 478.17 821.799 475.794 822.393 474.309L830.115 455.895C830.709 454.41 830.115 452.925 825.957 452.925" fill="#542C81" fill-rule="nonzero" fill-opacity="1" transform="matrix(1.00084 0 0 1 1090 1238)"/></g></g></g><g><g><g><path d="M863.1 480.699C863.1 692.638 691.199 864.299 479.5 864.299 267.801 864.299 95.9 692.398 95.9 480.699 95.9 268.999 267.801 97.0987 479.5 97.0987 691.199 97.0987 863.1 268.76 863.1 480.699" fill="#FFFFFF" fill-rule="nonzero" fill-opacity="1" transform="matrix(1 0 0 1.00104 1171 521)"/><path d="M202.349 455.285 128.746 466.793C135.938 279.069 290.337 129.465 479.74 129.465L479.74 131.383 479.74 245.264 479.74 279.309 479.74 298.009 479.74 317.189 481.418 317.669 486.692 297.769 578.517 297.769 579.236 300.167C578.277 306.88 578.756 327.019 612.561 341.404L613.52 344.041 479.74 340.685 345.959 344.041 346.918 341.404C380.483 327.019 380.963 306.88 380.243 300.167L380.963 297.769 472.787 297.769 467.992 279.548 401.102 281.706 401.581 280.028C421.48 268.76 422.2 252.936 421.72 247.182L422.439 245.024 458.881 245.024 448.332 204.027C317.669 218.652 214.336 323.662 202.349 455.285M716.852 334.691 706.064 367.297 708.461 372.092 805.56 372.092 809.636 359.865C762.165 229.68 639.413 135.459 493.885 129.705L505.393 203.548C595.059 211.699 672.259 262.047 716.852 334.691M708.461 589.305 706.064 594.1 716.852 626.706C672.019 699.351 595.059 749.698 505.633 758.089L494.125 831.932C639.413 825.939 761.925 731.957 809.636 601.533L805.56 589.305 708.461 589.305ZM619.754 362.742 618.795 359.865 479.74 359.865 340.685 359.865 339.726 362.742C339.486 371.133 335.65 397.505 299.208 433.708L298.249 436.824C318.628 427.954 336.849 420.761 354.111 414.288 375.209 406.376 394.868 400.143 414.288 394.868 424.837 391.991 435.386 389.594 445.455 387.436 456.244 385.278 467.033 383.36 477.342 381.922L479.5 381.682 481.658 381.922C490.528 383.12 499.639 384.559 508.989 386.477 517.62 388.155 526.731 390.313 535.841 392.71 552.384 397.026 569.406 402.3 588.107 408.774 613.041 417.644 637.735 427.714 661.47 438.023L660.032 433.708C623.829 397.505 619.754 371.133 619.754 362.742M557.658 280.268C537.759 268.999 537.04 253.176 537.519 247.422L536.8 245.264 500.358 245.264 491.487 279.788 558.378 281.946 557.658 280.268ZM541.835 645.167C542.075 645.647 542.314 645.886 542.794 646.366 543.513 647.325 544.712 648.284 545.911 649.003 547.109 649.722 548.788 650.681 550.706 651.64 554.062 653.079 558.138 654.517 563.412 655.716 573.002 658.114 583.791 659.312 593.381 660.271 596.018 660.511 598.656 660.751 601.293 660.991 605.608 648.524 610.883 636.296 617.116 623.829 605.848 628.864 593.861 633.18 581.154 636.776 565.091 641.571 551.185 643.968 541.835 645.167M396.067 655.716C401.341 654.517 405.417 653.079 408.774 651.64 410.692 650.921 412.13 649.962 413.569 649.003 414.767 648.044 415.966 647.085 416.685 646.366 416.925 645.886 417.405 645.647 417.644 645.167 408.294 643.968 394.389 641.571 378.325 637.016 365.619 633.419 353.631 629.104 342.363 624.069 348.357 636.296 353.871 648.763 358.186 661.23 360.824 660.991 363.461 660.751 366.098 660.511 375.448 659.312 386.477 658.114 396.067 655.716M830.734 480.699 830.734 480.938 830.734 494.604 757.13 506.112 680.171 518.339C663.628 545.191 645.886 571.804 630.782 598.656 628.864 599.854 627.186 600.813 625.268 602.012 600.813 615.918 573.482 624.309 543.513 626.946 546.15 620.473 550.226 614.239 554.302 608.006 556.46 604.649 559.097 601.053 562.214 596.977 564.851 593.381 567.488 589.785 570.605 585.949 578.277 576.119 586.428 565.81 594.34 556.22 598.176 551.425 602.252 546.39 606.088 541.595L614.959 530.327C615.438 529.847 615.678 529.368 616.157 528.888 618.795 525.532 621.192 522.175 623.59 518.819 626.227 515.223 629.104 511.147 631.741 507.071 632.46 505.872 633.419 504.434 634.139 503.235 634.618 502.516 635.098 501.797 635.577 501.077 635.577 501.077 635.577 501.077 635.577 501.077L620.713 496.762C620.713 496.762 620.713 497.002 620.473 497.002 619.754 498.2 619.034 499.399 618.075 500.598 615.918 503.954 613.28 507.551 610.164 511.866 605.848 517.62 599.854 525.052 593.621 532.485 593.381 532.964 592.902 533.204 592.662 533.683 584.75 542.794 576.359 551.904 567.968 560.535 563.173 565.57 558.378 570.845 553.583 575.879 547.589 582.353 540.876 590.025 534.642 598.176 531.526 602.012 528.649 606.328 526.011 610.403 523.854 614 520.977 618.795 519.059 624.069 517.62 627.905 515.702 633.659 515.942 640.612 515.942 647.085 518.819 654.038 523.374 658.833 525.772 661.71 528.888 663.868 531.286 665.546 534.403 667.464 537.28 668.902 540.157 670.101 545.431 672.259 551.185 673.937 558.138 675.136 564.132 676.335 570.125 676.814 575.64 677.294 581.633 677.773 587.627 677.773 592.662 678.013 592.902 678.013 593.141 678.013 593.381 678.013 594.58 678.013 595.539 678.013 596.738 678.013 595.779 681.369 595.059 684.726 594.34 688.082 594.34 688.082 594.34 688.082 594.34 688.082 594.34 688.082 594.34 688.082 594.1 688.082L542.554 706.543 510.667 718.531 488.61 489.33 486.692 468.471 482.617 426.515 480.219 427.234 480.219 468.471 480.219 480.459 480.219 485.973 480.219 737.231 480.219 830.494 480.219 832.412C286.261 832.412 128.985 675.136 128.985 481.418L128.985 481.178 206.425 481.178 335.89 481.178 356.268 481.178 356.988 479.02 323.423 469.67 291.776 461.039 292.974 457.683C350.754 432.029 413.808 407.335 480.459 398.225 545.671 406.856 608.725 432.988 668.183 458.642L668.902 461.039 637.255 469.67 603.69 479.02 604.41 481.178 624.788 481.178 754.253 481.178 830.734 481.178ZM454.086 758.089 447.853 717.811 417.405 706.543 366.098 688.082C366.098 688.082 365.858 688.082 365.858 688.082 365.858 688.082 365.858 688.082 365.858 688.082 365.139 684.726 364.42 681.369 363.461 678.013 364.66 678.013 365.619 678.013 366.817 678.013 367.057 678.013 367.297 678.013 367.537 678.013 372.571 678.013 378.565 678.013 384.559 677.294 390.073 676.814 396.067 676.335 402.061 675.136 409.013 673.937 414.528 672.259 420.042 670.101 422.919 668.902 425.796 667.464 428.913 665.546 431.55 663.868 434.427 661.71 436.824 658.833 441.38 653.798 444.017 647.085 444.257 640.612 444.257 637.255 444.257 632.221 441.14 624.069 438.982 618.795 436.345 614 434.187 610.403 431.55 606.328 428.673 602.012 425.556 598.176 419.323 590.025 412.37 582.353 406.616 575.879 401.821 570.605 397.026 565.57 392.231 560.535 384.079 551.665 375.448 542.794 367.537 533.683 367.297 533.204 366.817 532.964 366.578 532.485 360.104 525.052 354.35 517.62 349.795 511.866 346.678 507.551 344.041 503.954 341.883 500.598 341.164 499.399 340.445 498.2 339.726 497.002 339.726 497.002 339.726 496.762 339.486 496.762L324.621 501.077C324.621 501.077 324.621 501.077 324.621 501.077 325.101 501.797 325.58 502.516 326.06 503.235 326.779 504.434 327.738 505.872 328.457 507.071 331.095 511.147 333.972 515.223 336.609 518.819 339.006 522.175 341.644 525.532 344.041 528.888 344.281 529.368 344.76 529.847 345 530.327L353.871 541.595C357.707 546.39 361.783 551.425 365.619 556.22 373.53 566.05 381.682 576.119 389.354 585.949 392.471 589.785 395.108 593.621 397.745 596.977 400.862 601.293 403.259 604.649 405.657 608.006 409.733 614 413.569 620.473 416.446 626.946 386.717 624.309 359.145 615.918 334.931 602.012 333.013 601.053 331.095 599.854 329.416 598.656 314.072 571.804 296.571 545.191 280.028 518.339L202.828 506.112C214.576 639.653 320.785 745.862 454.086 758.089" fill="#12173F" fill-rule="nonzero" fill-opacity="1" transform="matrix(1 0 0 1.00104 1171 521)"/></g></g></g></g></g></svg>